<?xml version="1.0" encoding="UTF-8"?>
<svg id="Layer_2" data-name="Layer 2" xmlns="http://www.w3.org/2000/svg" viewBox="0 0 606.66 458.57">
  <defs>
    <style>
      .cls-1 {
        fill: #191818;
        stroke-width: 0px;
      }
    </style>
  </defs>
  <g id="Layer_1-2" data-name="Layer 1">
    <g>
      <path class="cls-1" d="m0,387.9l.54-.26c2.92-1.39,6.19-2.42,9.72-3.05,3.45-.61,7.78-.93,12.87-.94v45.99c0,2.55-.01,5.4-.06,8.54-.03,3.15-.14,6.11-.32,8.79-.18,2.72-.48,5-.89,6.79-.26,1.12-.73,2.46-1.54,2.46v.76h14.85v-.38h0,0v-.38c-.8,0-1.27-1.37-1.54-2.52-.43-1.86-.73-4.2-.89-6.94-.17-2.72-.28-5.73-.32-8.95-.04-3.18-.06-6.05-.06-8.59v-45.57c5.09.01,9.42.33,12.87.94,3.52.63,6.79,1.66,9.72,3.05l.54.26v-5.97H0v5.97Z"/>
      <path class="cls-1" d="m130.23,456.22c-1.58-.27-3.51-1.13-5.76-2.55-2.27-1.43-4.67-3.21-7.12-5.28-2.47-2.09-4.92-4.36-7.29-6.77-2.4-2.43-4.57-4.83-6.45-7.14-1.89-2.31-3.45-4.47-4.64-6.43-1.16-1.91-1.75-3.41-1.75-4.47s.48-1.94,1.46-2.79c1.04-.9,2.37-1.81,3.97-2.72,1.43-.81,3.04-1.74,5.21-3.03,1.84-1.09,3.61-2.39,5.26-3.86,1.65-1.46,3.03-3.19,4.11-5.14,1.09-1.95,1.65-4.3,1.65-6.98,0-2.23-.49-4.41-1.47-6.48-.98-2.06-2.53-3.9-4.62-5.5-2.09-1.58-4.78-2.85-7.98-3.78-3.21-.92-7.1-1.39-11.56-1.39h-28.55v.38h0,0v.38c.8,0,1.28,1.37,1.54,2.51.42,1.87.72,4.21.89,6.95.17,2.81.26,5.82.26,8.95v11.6l.11-.43v17.37c0,2.55-.02,5.4-.06,8.54-.03,3.04-.14,6-.32,8.79-.18,2.67-.48,4.96-.89,6.78-.26,1.12-.74,2.46-1.54,2.46v.38h0,0v.38h14.86v-.38h0,0v-.38c-.8,0-1.28-1.37-1.54-2.52-.42-1.86-.72-4.2-.89-6.94-.18-2.86-.28-5.87-.32-8.95-.03-3.18-.05-6.05-.05-8.59v-45.57h16.49c5.16,0,9.12,1.53,11.76,4.54,2.65,3.03,3.99,7.19,3.99,12.38,0,3.8-.82,6.96-2.43,9.39-1.63,2.48-3.47,4.65-5.45,6.46-2.02,1.84-3.88,3.54-5.57,5.1-1.77,1.62-2.67,3.5-2.67,5.58,0,1.89.56,4.16,1.68,6.73,1.1,2.55,2.58,5.22,4.39,7.91,1.82,2.71,3.94,5.42,6.29,8.06,2.38,2.67,4.92,5.06,7.53,7.1l.1.08h17.33l.07-.76Z"/>
      <path class="cls-1" d="m150.44,456.98v-.76c-.8,0-1.28-1.37-1.54-2.52-.42-1.85-.72-4.19-.89-6.94-.17-2.75-.28-5.76-.32-8.95-.04-3.18-.06-6.05-.06-8.59v-19.53c0-2.55.01-5.41.06-8.59.03-3.19.14-6.2.32-8.95.17-2.75.47-5.09.89-6.95.26-1.15.74-2.51,1.54-2.51v-.76h-14.85v.38h0,0v.38c.8,0,1.28,1.34,1.54,2.47.42,1.81.71,4.03.89,6.78.17,2.65.28,5.6.32,8.79.04,3.14.06,5.99.06,8.53v20.38c0,2.55-.01,5.4-.06,8.54-.03,3.18-.14,6.14-.32,8.79-.18,2.72-.48,5-.89,6.79-.26,1.12-.73,2.46-1.54,2.46v.38h0,0v.38h14.85Z"/>
      <path class="cls-1" d="m212.94,382.69c.55,0,1.06.89,1.43,2.51.42,1.85.71,4.12.9,6.95.18,2.75.28,5.76.32,8.95.03,3.18.06,6.04.06,8.59v30.98l-42.29-58.58-.11-.16h-11.13v.76c.8,0,1.28,1.37,1.54,2.51.42,1.87.72,4.21.89,6.95.17,2.81.26,5.82.26,8.95v36.72c0,3.13-.09,6.13-.26,8.94-.18,2.75-.48,5.08-.89,6.94-.26,1.15-.74,2.52-1.54,2.52v.76h7.64v-.76c-.55,0-1.06-.89-1.43-2.52-.42-1.86-.72-4.19-.9-6.94-.17-2.75-.28-5.76-.32-8.95-.04-3.18-.06-6.05-.06-8.59v-38.73l49.09,67.92.11.16h1.64v-48.88c0-2.55.01-5.41.05-8.59.04-3.31.15-6.24.32-8.95.17-2.74.47-5.08.89-6.95.36-1.62.87-2.51,1.43-2.51v-.76h-7.64v.76Z"/>
      <path class="cls-1" d="m277.25,382.69c.8,0,1.28,1.34,1.54,2.47.42,1.83.72,4.11.89,6.78.17,2.63.28,5.59.32,8.79.03,3.15.05,5.99.05,8.53v8.75h-35.74v-8.32c0-2.55.01-5.41.06-8.59.04-3.26.14-6.19.32-8.95.17-2.74.47-5.08.89-6.94.26-1.15.74-2.51,1.54-2.51v-.38h0,0v-.38h-14.85v.76c.8,0,1.28,1.34,1.54,2.47.42,1.81.71,4.03.89,6.78.17,2.67.28,5.63.32,8.79.04,3.14.06,5.99.06,8.53v20.38c0,2.55-.01,5.4-.06,8.54-.03,3.15-.14,6.11-.32,8.79-.18,2.72-.48,5-.89,6.79-.26,1.12-.73,2.46-1.54,2.46v.76h14.85v-.38h0,0v-.38c-.8,0-1.27-1.37-1.54-2.52-.43-1.86-.73-4.2-.89-6.94-.17-2.72-.28-5.73-.32-8.95-.04-3.18-.06-6.05-.06-8.59v-9.49h35.74v9.91c0,2.55-.01,5.4-.05,8.54-.04,3.19-.15,6.15-.32,8.79-.17,2.68-.47,4.96-.9,6.78-.26,1.12-.73,2.46-1.54,2.46v.76h14.86v-.76c-.8,0-1.28-1.37-1.54-2.52-.42-1.84-.71-4.11-.9-6.94-.17-2.73-.26-5.66-.26-8.94v-36.72c0-3.28.08-6.21.26-8.95.18-2.83.48-5.1.9-6.95.26-1.15.74-2.51,1.54-2.51v-.76h-14.86v.76Z"/>
      <path class="cls-1" d="m388.19,441.39c-3.21,3.76-6.93,6.58-11.06,8.39-8.14,3.56-17.13,3.64-25.33.11-4.03-1.74-7.71-4.35-10.91-7.76-3.21-3.43-5.83-7.74-7.77-12.83-1.96-5.09-2.95-11.08-2.95-17.79,0-4.32.71-8.25,2.1-11.69,1.39-3.45,3.29-6.44,5.65-8.9,2.35-2.46,5.13-4.38,8.25-5.7,6.98-2.94,14.77-2.65,22.66,1.26,4.34,2.15,8.46,5.61,12.23,10.3l.33.41,4.62-7.23-.3-.21c-3.97-2.77-8.36-4.89-13.05-6.31-9.34-2.84-19.21-2.88-28.04.11-4.42,1.5-8.39,3.83-11.81,6.92-3.43,3.11-6.21,7.13-8.26,11.97-2.06,4.82-3.11,10.62-3.11,17.23,0,6.11,1.03,11.61,3.06,16.34,2.03,4.74,4.75,8.76,8.09,11.96,3.35,3.2,7.25,5.68,11.59,7.35,4.34,1.67,8.88,2.52,13.5,2.52,5.68,0,11.36-1.28,16.88-3.8,5.51-2.53,10.39-6.51,14.52-11.84l.21-.26-.84-.85-.27.32Z"/>
      <path class="cls-1" d="m458.3,456.98v-.76c-.8,0-1.28-1.37-1.54-2.52-.42-1.86-.72-4.19-.9-6.94-.18-2.77-.27-5.78-.27-8.94v-36.72c0-3.16.09-6.17.27-8.95.17-2.74.47-5.08.89-6.95.26-1.15.73-2.51,1.54-2.51v-.76h-14.85v.38h0,0v.38c.8,0,1.27,1.34,1.54,2.47.42,1.81.71,4.03.89,6.78.18,2.79.28,5.74.32,8.79.04,3.15.06,5.99.06,8.53v8.75h-35.74v-8.32c0-2.55.01-5.41.05-8.59.03-3.07.14-6.09.32-8.95.18-2.74.48-5.08.89-6.95.26-1.15.74-2.51,1.54-2.51v-.76h-14.86v.76c.8,0,1.28,1.34,1.54,2.47.42,1.82.72,4.1.9,6.78.17,2.79.28,5.74.32,8.79.03,3.15.06,5.99.06,8.53v20.38c0,2.55-.02,5.4-.06,8.54-.03,3.04-.14,6-.32,8.79-.18,2.69-.48,4.97-.89,6.78-.26,1.12-.74,2.46-1.54,2.46v.76h14.86v-.76c-.8,0-1.28-1.37-1.54-2.52-.42-1.86-.72-4.2-.89-6.94-.18-2.86-.28-5.87-.32-8.95-.03-3.18-.05-6.05-.05-8.59v-9.49h35.74v9.91c0,2.55-.02,5.4-.06,8.54-.03,3.04-.14,6-.32,8.79-.18,2.72-.48,5-.89,6.78-.26,1.12-.74,2.46-1.54,2.46v.38h0,0v.38h14.85Z"/>
      <path class="cls-1" d="m534.82,456.6v-.38c-.6,0-1.22-.33-1.85-.99-.68-.72-1.4-1.68-2.13-2.86-.75-1.22-1.48-2.6-2.15-4.1-.73-1.59-1.4-3.19-2.01-4.76l-25.89-63.14-.1-.24h-1.26l-25.35,64.12c-.63,1.49-1.25,2.96-1.86,4.41-.57,1.39-1.16,2.7-1.74,3.9-.56,1.16-1.09,2.08-1.56,2.76-.55.78-.9.9-1.07.9v.76h5.09v-.38h0s0,0,0,0v-.38h-.06v-.03c-.08-.11-.3-.64.38-2.99.65-2.28,1.6-5.05,2.9-8.46l4.15-10.79h32.16l3.31,8.36c.56,1.48,1.14,3.07,1.75,4.76.6,1.7,1.06,3.25,1.36,4.63.31,1.38.41,2.54.31,3.43-.11.96-.54,1.09-.94,1.09v.38h0,0v.38h16.55v-.38h0,0Zm-23.06-24.36h-30.72l15.15-39.12,15.57,39.12Z"/>
      <path class="cls-1" d="m606.66,382.31h0v-.38h-7.64v.38h0,0v.38c.8,0,1.28,1.37,1.54,2.51.42,1.87.72,4.21.89,6.95.18,2.86.28,5.88.32,8.95.03,3.18.06,6.04.06,8.59v23.35c0,3.54-.68,6.71-2.03,9.44-1.35,2.73-3.17,5.05-5.41,6.88-2.25,1.84-4.82,3.26-7.63,4.23-5.42,1.88-11.24,1.96-16.63.16-2.59-.86-4.92-2.21-6.92-4.01-2-1.79-3.63-4.11-4.84-6.87-1.21-2.77-1.83-6.07-1.83-9.82v-23.77c0-2.54.02-5.39.06-8.53.03-3.05.14-6,.32-8.79.18-2.67.48-4.95.89-6.78.37-1.59.88-2.47,1.43-2.47v-.76h-14.75v.76c.56,0,1.07.89,1.43,2.51.42,1.85.71,4.12.9,6.95.18,2.76.28,5.69.32,8.95.04,3.18.06,6.04.06,8.59v23.35c0,4.21.82,7.96,2.43,11.16,1.61,3.18,3.77,5.87,6.42,7.98,2.64,2.11,5.7,3.72,9.09,4.79,3.39,1.07,6.91,1.61,10.47,1.61s7.07-.54,10.46-1.61c3.39-1.07,6.47-2.68,9.14-4.78,2.69-2.12,4.87-4.8,6.47-7.98,1.61-3.18,2.39-6.94,2.32-11.16v-23.34c0-2.55.01-5.41.06-8.59.04-3.26.14-6.19.32-8.95.18-2.82.47-5.1.89-6.95.37-1.62.88-2.51,1.43-2.51v-.38h0Z"/>
      <path class="cls-1" d="m359.47,202.12l.27-.27.27-.33v-.16c0-4.55,3.71-8.26,8.32-8.26h.16l.53-.53-.27-.27-.33-.27h-.16c-4.55,0-8.26-3.71-8.26-8.32v-.16l-.54-.54-.27.27-.26.33v.16c0,4.55-3.71,8.26-8.32,8.26h-.16l-.54.54.27.27.33.26h.16c4.55,0,8.26,3.7,8.26,8.32v.16l.53.53Z"/>
      <path class="cls-1" d="m381.18,44.78c15.39,18.13,23.86,41.21,23.86,64.99v126.65c0,23.78-8.47,46.85-23.86,64.99-15.12,17.82-36.01,29.86-58.84,33.95l-4.48.6c-.22.03-.42.15-.56.32s-.19.4-.17.62l.38,2.83c.06.42.42.73.83.73.04,0,.07,0,.11,0l4.05-.54c26.46-2.3,51.01-14.34,69.16-33.95,18.37-19.84,28.48-45.64,28.48-72.64v-120.44c0-27-10.11-52.8-28.48-72.64-18.26-19.73-42.99-31.8-69.64-34l-.41-.03v4.51l.32.06c22.99,4.02,44.03,16.11,59.24,34.03Zm-34.7-29.12c41.25,14.12,69.39,52.95,69.39,97.21v120.44c0,44.25-28.14,83.09-69.39,97.21,36.86-16.45,61.09-53.26,61.09-94.11v-126.65c0-40.84-24.23-77.65-61.09-94.11Z"/>
      <path class="cls-1" d="m290.21,340.34s.06,0,.09,0c.42,0,.79-.32.83-.75l.32-2.84c.03-.22-.04-.44-.18-.62-.14-.18-.34-.29-.56-.31l-3.8-.42c-22.94-4.05-43.93-16.12-59.12-34.01-15.4-18.13-23.88-41.21-23.88-64.99v-126.65c0-23.77,8.48-46.85,23.88-64.99,15.22-17.92,36.27-30.01,59.26-34.03l.32-.06v-4.51l-.41.03c-26.66,2.18-51.4,14.25-69.67,33.99-18.37,19.84-28.48,45.65-28.48,72.66v120.44c0,27.01,10.12,52.81,28.48,72.66,17.64,19.05,41.31,30.93,66.91,33.7l6.01.67Zm-27.74-9.82c-41.25-14.13-69.38-52.96-69.38-97.2v-120.44c0-44.24,28.13-83.07,69.38-97.2-36.86,16.46-61.08,53.26-61.08,94.1v126.65c0,40.84,24.22,77.65,61.08,94.1Z"/>
      <path class="cls-1" d="m303,345.5l.51.52.27-.27.25-.3v-.16c0-4.04,3.29-7.33,7.38-7.33h.16l.51-.51-.27-.27-.3-.25h-.16c-4.04,0-7.33-3.29-7.33-7.38v-.16l-.52-.52-.27.27-.25.3v.16c0,4.04-3.29,7.33-7.38,7.33h-.16l-.52.52.27.27.3.24h.16c4.04,0,7.33,3.29,7.33,7.38v.16Z"/>
      <path class="cls-1" d="m295.52,9.09h.16c4.04,0,7.33,3.29,7.33,7.38v.16l.51.52.27-.27.25-.3v-.16c0-4.04,3.29-7.33,7.38-7.33h.16l.51-.51-.27-.27-.3-.25h-.16c-4.04,0-7.33-3.29-7.33-7.38v-.16l-.52-.52-.27.27-.25.3v.16c0,4.04-3.29,7.33-7.38,7.33h-.16l-.52.53.27.27.3.24Z"/>
      <path class="cls-1" d="m293.78,242.26l-.24.05c-.97.19-2.15.29-3.52.29h-3.59c-4.35,0-7.9-.35-10.54-1.04-2.64-.68-4.66-1.57-6-2.63-1.33-1.04-2.19-2.28-2.57-3.7-.39-1.46-.59-2.99-.59-4.51.2-2.36.85-5,1.93-7.84.56-1.49,1.23-3.06,2-4.71,2.32,3.54,5,6.7,8.01,9.44,4.99,4.52,10.78,7.98,17.22,10.29,6.44,2.29,13.05,3.45,19.66,3.45,5.53,0,11.05-.83,16.43-2.46,5.43-1.65,10.47-4.18,14.98-7.53,4.53-3.36,8.57-7.63,12.04-12.75.78-1.66,1.09-3.07,1.42-4.81v-2.06l-1.55,2.23c-2.81,3.86-6.07,7.12-9.68,9.68-3.62,2.55-7.61,4.51-11.87,5.82-10.21,3.09-20.93,2.47-31.1-1.61-5.92-2.36-11.29-5.97-15.97-10.74-4.21-4.31-7.74-9.62-10.52-15.8,5.97-10.65,12.39-21.83,19.17-33.4,6.34-10.81,13.13-21.9,20.26-33.11,2.34.42,4.69,1,7.03,1.78,4.96,1.65,9.65,4.14,13.93,7.41,4.27,3.27,8.06,7.33,11.28,12.05,3.21,4.71,5.54,10.26,6.95,16.49l.07.3h2.07v-40.49l-2.08.24-.06.27c-.48,2.34-1.31,3.99-2.45,4.89-1.15.91-2.57,1.35-4.34,1.35-1.89,0-4.14-.38-6.68-1.12-2.58-.77-5.44-1.63-8.54-2.6-3.12-.97-6.49-1.85-10.02-2.59-1.72-.37-3.51-.65-5.34-.84,2.93-4.57,5.9-9.16,8.93-13.76,1.31-1.88,3.32-2.83,6-2.83,2.98-.2,6.4-.25,10.16-.15,3.76.1,7.41.05,10.82-.15,9.58-.4,17.84-1.82,24.54-4.22,6.74-2.42,11.9-6.5,15.34-12.17.82-1.64,1.24-3.11,1.24-4.37,0-1.7-.32-2.95-.93-3.75-1.21-2.62-3.05-5.28-5.47-7.9-.49-.49-.85-.71-1.16-.71-.39,0-1.28.15-1.28,1.58,0,.47.12.85.36,1.12.11.27.24.8.24,1.88,0,3.69-1.48,7.13-4.39,10.23-2.96,3.16-5.95,5.55-8.89,7.12-9.49,5.14-22.34,7.85-38.18,8.05h-12.89c-5.99,0-11.84-.05-17.38-.15-5.82-.1-11.67-.15-17.39-.15-6.54,0-12.61-.05-18.57-.15-6.19-.1-11.86.36-16.85,1.36-4.64.8-8.93,2.75-12.76,5.77-3.81,3.01-7.32,6.72-10.41,11.02-3.1,4.3-5.89,9.06-8.28,14.15-2.4,5.09-4.52,10.4-6.31,15.77l-.04.12.04.12c.44,1.3.93,2.11,1.51,2.45.36.22.67.2.87.14.39-.11.72-.45,1.03-1.07,4.16-10.1,8.78-18.29,13.72-24.33,4.93-6.02,10.59-10.68,16.81-13.84,6.22-3.16,13.53-5.26,21.75-6.26,8.24-.99,17.85-1.49,28.57-1.49h9.89c.82,0,1.36.16,1.54.47.19.32.06.89-.37,1.67-2.49,4.75-5.2,9.75-8.06,14.89-5.02.76-9.6,2.09-13.67,4.02-6.67,3.16-12.23,7.38-16.52,12.54-4.29,5.16-7.5,11.16-9.53,17.84-2.04,6.69-3.07,13.62-3.07,20.61,0,5.48.61,10.6,1.81,15.29-4.43,7.36-8.61,14.25-12.68,20.87-1.41,2.22-2.53,4.36-3.33,6.36-.81,2.03-1.23,3.9-1.23,5.54,0,2.69.69,4.79,2.05,6.25,1.34,1.44,3.1,2.54,5.25,3.25,2.13.71,4.58,1.12,7.3,1.22,2.71.1,5.59.15,8.56.15,3.54,0,7.48-.05,11.7-.15,4.16-.1,8-.35,11.42-.75l.17-.06c.81-.54,1.25-1.08,1.34-1.67.07-.43-.05-.86-.36-1.27l-.14-.19Zm-18.81-58.41c-.36-3.04-.55-6.21-.55-9.53,0-6.83,1.02-12.84,3.02-17.87,2.02-5.01,4.76-9.22,8.15-12.53,3.41-3.3,7.37-5.8,11.77-7.4,1.94-.7,3.93-1.22,5.95-1.61-1.41,2.51-2.84,5.05-4.33,7.63-4.66,8.11-9.71,16.83-15.43,26.67-2.82,4.85-5.7,9.74-8.59,14.63Z"/>
      <rect class="cls-1" x="475.41" y="366.47" width="49.25" height="2.8"/>
    </g>
  </g>
</svg>