<?xml version="1.0" encoding="UTF-8"?>
<svg id="Layer_2" data-name="Layer 2" xmlns="http://www.w3.org/2000/svg" viewBox="0 0 897.03 678.05">
  <defs>
    <style>
      .cls-1 {
        fill: #fff;
        stroke-width: 0px;
      }
    </style>
  </defs>
  <g id="Layer_1-2" data-name="Layer 1">
    <g>
      <path class="cls-1" d="m0,573.55l.81-.38c4.32-2.05,9.15-3.57,14.37-4.5,5.1-.9,11.5-1.37,19.03-1.4v68c0,3.77-.02,7.98-.08,12.63-.05,4.66-.21,9.04-.47,12.99-.26,4.02-.71,7.39-1.32,10.03-.38,1.66-1.08,3.64-2.27,3.64v1.13h21.96v-.56h0,0v-.56c-1.18,0-1.89-2.02-2.27-3.72-.63-2.75-1.07-6.21-1.32-10.27-.26-4.02-.42-8.47-.47-13.23-.06-4.71-.08-8.94-.08-12.7v-67.38c7.53.02,13.93.49,19.03,1.4,5.21.93,10.04,2.45,14.38,4.51l.81.38v-8.83H0v8.83Z"/>
      <path class="cls-1" d="m192.57,674.58c-2.33-.4-5.2-1.67-8.51-3.77-3.36-2.12-6.9-4.75-10.53-7.8-3.65-3.08-7.28-6.45-10.78-10.01-3.55-3.6-6.76-7.15-9.54-10.55-2.8-3.41-5.1-6.61-6.86-9.51-1.72-2.83-2.59-5.05-2.59-6.61s.71-2.87,2.16-4.13c1.53-1.33,3.51-2.68,5.88-4.02,2.12-1.2,4.49-2.58,7.7-4.48,2.72-1.62,5.33-3.54,7.77-5.71,2.43-2.17,4.48-4.72,6.07-7.6,1.62-2.89,2.43-6.36,2.43-10.32,0-3.3-.73-6.52-2.17-9.58-1.44-3.04-3.74-5.77-6.84-8.13-3.09-2.34-7.07-4.22-11.8-5.59-4.74-1.37-10.5-2.06-17.1-2.06h-42.22v.56h0,0v.56c1.19,0,1.9,2.02,2.28,3.72.62,2.76,1.06,6.22,1.32,10.27.26,4.15.39,8.6.39,13.23v17.15l.16-.63v25.69c0,3.77-.03,7.98-.08,12.63-.05,4.5-.21,8.87-.47,12.99-.26,3.95-.7,7.33-1.32,10.03-.39,1.66-1.1,3.64-2.28,3.64v.56h0,0v.56h21.97v-.56h0,0v-.56c-1.19,0-1.9-2.02-2.28-3.72-.62-2.76-1.06-6.21-1.32-10.27-.26-4.23-.42-8.68-.47-13.23-.05-4.71-.07-8.94-.07-12.71v-67.38h24.38c7.63,0,13.48,2.26,17.38,6.71,3.92,4.48,5.9,10.64,5.9,18.3,0,5.61-1.21,10.29-3.59,13.89-2.42,3.66-5.13,6.87-8.06,9.55-2.98,2.72-5.73,5.23-8.24,7.53-2.62,2.4-3.95,5.17-3.95,8.26,0,2.8.83,6.15,2.48,9.96,1.62,3.78,3.81,7.71,6.48,11.7,2.69,4.01,5.82,8.02,9.3,11.91,3.52,3.94,7.27,7.48,11.13,10.5l.15.12h25.62l.1-1.12Z"/>
      <path class="cls-1" d="m222.44,675.7v-1.13c-1.18,0-1.89-2.02-2.27-3.72-.62-2.74-1.07-6.19-1.32-10.27-.26-4.06-.42-8.51-.47-13.23-.06-4.71-.08-8.94-.08-12.7v-28.87c0-3.76.02-8,.08-12.7.05-4.71.21-9.17.47-13.23.25-4.06.7-7.52,1.32-10.27.38-1.7,1.09-3.72,2.27-3.72v-1.13h-21.96v.56h0,0v.56c1.19,0,1.89,1.98,2.27,3.65.62,2.68,1.05,5.96,1.32,10.03.26,3.91.42,8.28.47,12.99.06,4.65.08,8.86.08,12.62v30.13c0,3.77-.02,7.98-.08,12.63-.05,4.7-.21,9.07-.47,12.99-.26,4.02-.71,7.39-1.32,10.03-.38,1.66-1.08,3.64-2.27,3.64v.56h0,0v.56h21.96Z"/>
      <path class="cls-1" d="m314.86,565.85c.82,0,1.57,1.32,2.12,3.72.62,2.73,1.05,6.09,1.32,10.27.26,4.06.42,8.52.47,13.23.05,4.7.08,8.94.08,12.7v45.8l-62.53-86.62-.17-.23h-16.46v1.13c1.19,0,1.9,2.02,2.28,3.72.62,2.76,1.06,6.22,1.32,10.27.26,4.15.39,8.6.39,13.23v54.29c0,4.62-.13,9.07-.38,13.22-.26,4.06-.7,7.51-1.32,10.27-.38,1.7-1.1,3.72-2.28,3.72v1.13h11.3v-1.13c-.82,0-1.57-1.32-2.12-3.72-.63-2.75-1.07-6.2-1.32-10.27-.26-4.06-.42-8.51-.47-13.23-.06-4.71-.08-8.94-.08-12.71v-57.26l72.58,100.43.17.23h2.42v-72.28c0-3.76.02-8,.07-12.7.06-4.9.22-9.23.48-13.24.25-4.05.69-7.51,1.32-10.27.54-2.4,1.29-3.72,2.12-3.72v-1.13h-11.3v1.13Z"/>
      <path class="cls-1" d="m409.95,565.85c1.19,0,1.89,1.98,2.27,3.65.63,2.7,1.07,6.07,1.32,10.03.26,3.9.42,8.27.48,12.99.05,4.65.07,8.86.07,12.62v12.94h-52.85v-12.31c0-3.76.02-8,.08-12.7.05-4.82.2-9.15.47-13.23.25-4.05.69-7.51,1.32-10.27.38-1.7,1.09-3.72,2.27-3.72v-.56h0,0v-.56h-21.96v1.13c1.19,0,1.89,1.98,2.27,3.65.62,2.68,1.05,5.96,1.32,10.03.26,3.95.42,8.32.47,12.99.06,4.65.08,8.86.08,12.62v30.13c0,3.77-.02,7.98-.08,12.63-.05,4.66-.21,9.04-.47,12.99-.26,4.02-.71,7.39-1.32,10.03-.38,1.66-1.08,3.64-2.27,3.64v1.13h21.96v-.56h0,0v-.56c-1.18,0-1.89-2.02-2.27-3.72-.63-2.75-1.07-6.21-1.32-10.27-.26-4.02-.42-8.47-.47-13.23-.06-4.71-.08-8.94-.08-12.7v-14.03h52.85v14.66c0,3.77-.02,7.98-.07,12.63-.06,4.72-.22,9.09-.48,13-.25,3.96-.7,7.33-1.32,10.03-.38,1.66-1.08,3.64-2.27,3.64v1.13h21.97v-1.13c-1.19,0-1.9-2.02-2.28-3.72-.62-2.72-1.05-6.08-1.32-10.27-.26-4.04-.38-8.37-.38-13.22v-54.29c0-4.86.13-9.18.38-13.23.27-4.18.7-7.54,1.32-10.27.38-1.7,1.1-3.72,2.28-3.72v-1.13h-21.97v1.13Z"/>
      <path class="cls-1" d="m573.98,652.64c-4.74,5.56-10.25,9.74-16.35,12.4-12.04,5.26-25.33,5.38-37.45.16-5.97-2.57-11.39-6.44-16.13-11.48-4.75-5.07-8.62-11.45-11.49-18.97-2.89-7.53-4.36-16.38-4.36-26.31,0-6.39,1.04-12.2,3.11-17.28,2.05-5.1,4.87-9.52,8.36-13.16,3.48-3.64,7.59-6.48,12.2-8.42,10.32-4.35,21.84-3.92,33.51,1.87,6.42,3.18,12.5,8.3,18.09,15.22l.49.61,6.83-10.69-.44-.31c-5.87-4.1-12.37-7.24-19.3-9.33-13.81-4.2-28.41-4.26-41.46.16-6.54,2.22-12.41,5.66-17.46,10.24-5.07,4.59-9.18,10.55-12.21,17.69-3.05,7.13-4.6,15.7-4.6,25.48,0,9.04,1.52,17.17,4.52,24.16,3,7.01,7.03,12.95,11.97,17.68,4.95,4.73,10.72,8.39,17.14,10.87,6.42,2.47,13.14,3.72,19.97,3.72,8.4,0,16.8-1.89,24.96-5.62,8.15-3.73,15.37-9.63,21.47-17.51l.3-.39-1.25-1.26-.4.47Z"/>
      <path class="cls-1" d="m677.66,675.7v-1.13c-1.19,0-1.89-2.02-2.27-3.72-.63-2.75-1.07-6.2-1.32-10.27-.26-4.1-.39-8.55-.39-13.22v-54.29c0-4.67.13-9.12.4-13.23.25-4.06.7-7.51,1.32-10.27.38-1.69,1.08-3.72,2.27-3.72v-1.13h-21.96v.56h0,0v.56c1.18,0,1.89,1.98,2.27,3.65.62,2.68,1.05,5.96,1.32,10.03.26,4.12.42,8.49.47,13,.05,4.65.08,8.86.08,12.62v12.94h-52.85v-12.31c0-3.76.02-8,.07-12.7.05-4.55.21-9,.47-13.23.26-4.05.7-7.51,1.32-10.27.38-1.7,1.1-3.72,2.28-3.72v-1.13h-21.97v1.13c1.19,0,1.9,1.98,2.28,3.65.62,2.69,1.06,6.06,1.32,10.03.26,4.12.42,8.49.47,13,.05,4.65.08,8.86.08,12.62v30.13c0,3.77-.03,7.98-.08,12.63-.05,4.5-.21,8.87-.47,12.99-.26,3.97-.71,7.35-1.32,10.03-.39,1.66-1.1,3.64-2.28,3.64v1.13h21.97v-1.13c-1.19,0-1.9-2.02-2.28-3.72-.62-2.76-1.06-6.21-1.32-10.27-.26-4.23-.42-8.68-.47-13.23-.05-4.71-.07-8.94-.07-12.71v-14.03h52.85v14.66c0,3.77-.03,7.98-.08,12.63-.05,4.5-.21,8.87-.47,12.99-.26,4.02-.71,7.39-1.32,10.03-.39,1.66-1.09,3.64-2.27,3.64v.56h0,0v.56h21.96Z"/>
      <path class="cls-1" d="m790.79,675.13v-.56c-.88,0-1.8-.49-2.73-1.47-1.01-1.06-2.07-2.48-3.14-4.23-1.12-1.8-2.19-3.84-3.19-6.06-1.07-2.35-2.07-4.72-2.97-7.04l-38.29-93.37-.14-.35h-1.86l-37.49,94.8c-.94,2.2-1.85,4.37-2.75,6.52-.84,2.05-1.71,3.99-2.57,5.77-.83,1.71-1.61,3.08-2.31,4.08-.81,1.16-1.34,1.33-1.57,1.33v1.13h7.52v-.56h0s0,0,0,0v-.56h-.09v-.04c-.12-.16-.44-.95.57-4.42.97-3.37,2.37-7.46,4.29-12.51l6.14-15.96h47.56l4.89,12.35c.83,2.19,1.69,4.54,2.58,7.04.88,2.51,1.56,4.81,2.02,6.84.46,2.05.61,3.75.46,5.07-.16,1.42-.79,1.62-1.4,1.62v.56h0,0v.56h24.48v-.56h0,0Zm-34.09-36.02h-45.42l22.4-57.84,23.02,57.84Z"/>
      <path class="cls-1" d="m897.03,565.29h0v-.56h-11.3v.56h0,0v.56c1.19,0,1.9,2.02,2.28,3.72.62,2.76,1.06,6.22,1.32,10.27.26,4.24.42,8.69.47,13.23.05,4.7.08,8.94.08,12.7v34.52c0,5.23-1.01,9.92-3.01,13.96-1.99,4.04-4.68,7.46-8.01,10.17-3.33,2.72-7.13,4.82-11.28,6.26-8.02,2.78-16.62,2.9-24.58.23-3.83-1.27-7.27-3.26-10.24-5.92-2.96-2.65-5.37-6.07-7.16-10.16-1.79-4.09-2.7-8.98-2.7-14.53v-35.15c0-3.76.03-7.97.08-12.62.05-4.5.21-8.88.47-12.99.26-3.95.7-7.33,1.32-10.03.55-2.35,1.3-3.65,2.12-3.65v-1.13h-21.81v1.13c.83,0,1.58,1.32,2.12,3.72.62,2.73,1.05,6.09,1.32,10.27.26,4.08.41,8.41.47,13.23.06,4.7.08,8.94.08,12.7v34.52c0,6.23,1.21,11.78,3.59,16.49,2.38,4.71,5.57,8.68,9.49,11.8,3.9,3.11,8.43,5.49,13.44,7.08,5.01,1.58,10.22,2.38,15.47,2.38s10.45-.8,15.46-2.38c5.02-1.58,9.56-3.96,13.52-7.08,3.97-3.13,7.19-7.1,9.57-11.81,2.38-4.7,3.53-10.26,3.43-16.5v-34.52c0-3.76.02-8,.08-12.7.05-4.82.2-9.15.47-13.23.27-4.18.7-7.54,1.32-10.27.55-2.4,1.3-3.72,2.12-3.72v-.56h0Z"/>
      <path class="cls-1" d="m531.52,298.86l.4-.4.4-.48v-.23c0-6.73,5.48-12.21,12.31-12.21h.23l.78-.79-.4-.4-.48-.4h-.23c-6.73,0-12.21-5.48-12.21-12.3v-.23l-.8-.8-.4.4-.39.48v.23c0,6.73-5.48,12.21-12.3,12.21h-.23l-.79.8.4.4.48.39h.23c6.73,0,12.21,5.48,12.21,12.31v.23l.79.78Z"/>
      <path class="cls-1" d="m563.62,66.21c22.75,26.81,35.28,60.93,35.28,96.09v187.26c0,35.16-12.53,69.28-35.28,96.09-22.36,26.35-53.24,44.15-87.01,50.2l-6.62.89c-.33.04-.62.21-.82.48s-.29.59-.24.92l.56,4.19c.09.62.62,1.08,1.23,1.08.05,0,.11,0,.16-.01l5.99-.8c39.13-3.41,75.43-21.21,102.27-50.2,27.16-29.34,42.11-67.48,42.11-107.41v-178.09c0-39.93-14.96-78.07-42.11-107.41-27-29.17-63.57-47.03-102.97-50.28l-.61-.05v6.66l.47.08c34,5.95,65.1,23.82,87.6,50.32Zm-51.31-43.06c60.99,20.87,102.6,78.3,102.6,143.74v178.09c0,65.43-41.6,122.86-102.6,143.73,54.5-24.33,90.33-78.76,90.33-139.15v-187.26c0-60.39-35.83-114.82-90.33-139.15Z"/>
      <path class="cls-1" d="m429.11,503.23s.09,0,.14,0c.62,0,1.16-.47,1.23-1.11l.47-4.2c.04-.33-.05-.65-.26-.91-.21-.26-.5-.42-.83-.46l-5.62-.63c-33.92-5.99-64.96-23.83-87.41-50.28-22.77-26.81-35.31-60.94-35.31-96.09v-187.26c0-35.15,12.54-69.28,35.31-96.09,22.5-26.5,53.62-44.37,87.62-50.32l.47-.08v-6.66l-.61.05c-39.42,3.23-76,21.08-103.02,50.26-27.16,29.34-42.12,67.49-42.12,107.43v178.09c0,39.94,14.96,78.09,42.12,107.43,26.08,28.17,61.08,45.74,98.94,49.83l8.89.99Zm-41.02-14.52c-60.99-20.89-102.59-78.31-102.59-143.73v-178.09c0-65.42,41.6-122.84,102.58-143.73-54.49,24.33-90.31,78.76-90.31,139.14v187.26c0,60.39,35.82,114.81,90.31,139.14Z"/>
      <path class="cls-1" d="m448.03,510.86l.76.76.4-.4.37-.45v-.23c0-5.97,4.86-10.83,10.92-10.83h.23l.76-.76-.4-.4-.45-.37h-.23c-5.97,0-10.83-4.86-10.83-10.91v-.23l-.77-.77-.4.4-.36.45v.23c0,5.97-4.86,10.83-10.91,10.83h-.23l-.77.77.4.4.45.36h.23c5.97,0,10.83,4.86,10.83,10.92v.23Z"/>
      <path class="cls-1" d="m436.96,13.45h.23c5.97,0,10.83,4.86,10.83,10.92v.23l.76.76.4-.4.37-.45v-.23c0-5.97,4.86-10.83,10.92-10.83h.23l.76-.76-.4-.4-.45-.38h-.23c-5.97,0-10.83-4.86-10.83-10.91v-.23l-.77-.77-.4.4-.36.45v.23c0,5.97-4.86,10.83-10.91,10.83h-.23l-.77.78.4.4.45.36Z"/>
      <path class="cls-1" d="m434.38,358.21l-.35.07c-1.43.29-3.18.43-5.21.43h-5.31c-6.44,0-11.68-.52-15.59-1.54-3.9-1.01-6.89-2.32-8.88-3.88-1.96-1.54-3.24-3.37-3.8-5.46-.57-2.16-.87-4.42-.87-6.68.29-3.49,1.25-7.39,2.85-11.59.83-2.2,1.82-4.53,2.95-6.96,3.44,5.23,7.39,9.91,11.84,13.96,7.37,6.68,15.94,11.8,25.46,15.22,9.52,3.39,19.3,5.1,29.07,5.1,8.17,0,16.34-1.22,24.29-3.63,8.03-2.44,15.49-6.18,22.15-11.13,6.7-4.97,12.67-11.28,17.8-18.85,1.16-2.46,1.61-4.54,2.1-7.11v-3.05l-2.29,3.3c-4.16,5.7-8.98,10.52-14.31,14.31-5.35,3.78-11.25,6.67-17.54,8.6-15.09,4.57-30.94,3.66-45.98-2.37-8.75-3.48-16.7-8.83-23.62-15.88-6.23-6.37-11.44-14.22-15.56-23.36,8.83-15.75,18.32-32.28,28.35-49.38,9.37-15.98,19.41-32.38,29.95-48.96,3.46.61,6.93,1.48,10.39,2.64,7.34,2.44,14.26,6.12,20.59,10.96,6.31,4.84,11.92,10.83,16.68,17.82,4.74,6.96,8.2,15.17,10.27,24.39l.1.44h3.06v-59.86l-3.08.36-.08.4c-.71,3.46-1.93,5.9-3.62,7.24-1.7,1.35-3.8,2-6.42,2-2.8,0-6.12-.56-9.87-1.65-3.82-1.14-8.04-2.41-12.63-3.85-4.61-1.44-9.6-2.73-14.81-3.83-2.54-.55-5.19-.96-7.9-1.25,4.33-6.76,8.73-13.55,13.21-20.35,1.94-2.78,4.92-4.19,8.88-4.19,4.41-.29,9.46-.37,15.02-.22,5.56.15,10.95.08,16-.22,14.17-.59,26.38-2.69,36.28-6.24,9.97-3.57,17.6-9.61,22.69-18,1.22-2.43,1.83-4.6,1.83-6.46,0-2.52-.47-4.37-1.38-5.55-1.79-3.88-4.51-7.8-8.09-11.68-.73-.73-1.26-1.05-1.72-1.05-.57,0-1.9.23-1.9,2.33,0,.7.18,1.26.54,1.65.16.39.35,1.19.35,2.78,0,5.45-2.18,10.54-6.49,15.13-4.38,4.67-8.81,8.21-13.15,10.52-14.03,7.61-33.03,11.61-56.45,11.9h-19.06c-8.86,0-17.5-.07-25.69-.22-8.6-.15-17.25-.22-25.71-.22-9.67,0-18.65-.07-27.46-.22-9.15-.14-17.54.53-24.92,2-6.86,1.19-13.21,4.06-18.87,8.53-5.64,4.46-10.82,9.94-15.39,16.29-4.58,6.36-8.7,13.39-12.24,20.92-3.54,7.53-6.68,15.38-9.33,23.32l-.06.18.06.18c.64,1.93,1.38,3.12,2.24,3.63.53.32.99.29,1.28.21.57-.16,1.07-.67,1.53-1.58,6.15-14.94,12.98-27.04,20.29-35.97,7.3-8.9,15.66-15.78,24.86-20.46,9.19-4.67,20.01-7.78,32.16-9.25,12.18-1.47,26.4-2.21,42.25-2.21h14.62c1.22,0,2,.24,2.27.69.28.47.09,1.32-.55,2.47-3.69,7.03-7.69,14.41-11.92,22.01-7.42,1.12-14.19,3.1-20.21,5.94-9.86,4.68-18.08,10.92-24.43,18.55-6.35,7.62-11.09,16.5-14.1,26.37-3.01,9.89-4.54,20.14-4.54,30.48,0,8.1.9,15.67,2.67,22.61-6.55,10.89-12.73,21.07-18.74,30.86-2.09,3.29-3.74,6.45-4.92,9.4-1.2,3.01-1.81,5.76-1.81,8.19,0,3.98,1.02,7.09,3.03,9.24,1.98,2.13,4.59,3.75,7.77,4.81,3.14,1.04,6.77,1.65,10.79,1.8,4.01.15,8.27.22,12.65.22,5.24,0,11.05-.07,17.29-.22,6.15-.15,11.83-.52,16.89-1.11l.25-.09c1.19-.8,1.84-1.6,1.99-2.47.11-.64-.07-1.27-.53-1.88l-.21-.28Zm-27.82-86.37c-.53-4.49-.82-9.19-.82-14.08,0-10.1,1.5-18.98,4.47-26.42,2.98-7.4,7.04-13.63,12.05-18.52,5.04-4.89,10.9-8.57,17.4-10.95,2.87-1.04,5.81-1.8,8.8-2.38-2.08,3.71-4.21,7.47-6.4,11.28-6.89,11.98-14.35,24.88-22.82,39.43-4.18,7.17-8.42,14.4-12.7,21.64Z"/>
      <rect class="cls-1" x="702.94" y="541.87" width="72.83" height="4.14"/>
    </g>
  </g>
</svg>